<?xml version="1.0" encoding="UTF-8"?>
<!-- Generated by Pixelmator Pro 3.6.17 -->
<svg width="512" height="512" viewBox="0 0 512 512" xmlns="http://www.w3.org/2000/svg">
    <g id="Group">
        <path id="Pill" fill="#ffda00" fill-opacity="0.978652" fill-rule="evenodd" stroke="#000000" stroke-width="3.755844" d="M 134.565887 491.748047 C 68.531532 491.748047 15 438.218689 15 372.187012 C 15 306.155334 68.531532 252.625977 134.565887 252.625977 L 377.434113 252.625977 C 443.468475 252.625977 497 306.155334 497 372.187012 C 497 438.218689 443.468475 491.748047 377.434113 491.748047 L 134.565887 491.748047 Z"/>
        <path id="Line" fill="#ffda00" fill-opacity="0.978652" fill-rule="evenodd" stroke="#000000" stroke-width="20.148569" d="M 113.903893 252.625977 L 113.903893 491.748047"/>
        <path id="Line-copy" fill="#ffda00" fill-opacity="0.978652" fill-rule="evenodd" stroke="#000000" stroke-width="20.148569" d="M 186.516876 253.87793 L 186.516876 493"/>
        <path id="Line-copy-2" fill="#ffda00" fill-opacity="0.978652" fill-rule="evenodd" stroke="#000000" stroke-width="20.148569" d="M 270.3974 253.87793 L 270.3974 493"/>
        <path id="Line-copy-3" fill="#ffda00" fill-opacity="0.978652" fill-rule="evenodd" stroke="#000000" stroke-width="20.148569" d="M 327.987 252.625977 L 327.987 491.748047"/>
        <path id="Heart" fill="#ffffff" fill-opacity="0.978652" fill-rule="evenodd" stroke="#000000" stroke-width="22.535065" d="M 317.707306 203.946045 C 310.858704 216.582001 301.137207 228.882813 288.542358 240.848511 C 275.954803 252.815094 261.047485 264.249725 243.820618 275.152618 C 242.763306 275.822144 241.64978 276.400177 240.492554 276.880127 C 238.438675 277.926514 236.002884 277.926514 233.949005 276.880127 C 232.791779 276.400177 231.678253 275.822144 230.620941 275.152618 C 213.396484 264.248779 198.488708 252.814148 185.897781 240.848511 C 173.306778 228.882813 163.585083 216.582001 156.732193 203.946045 C 149.881256 191.31073 146.454544 178.1427 146.454544 165.242798 C 146.454544 154.548004 148.710373 145.466949 153.219788 137.200745 C 157.453003 129.227753 163.758698 122.524078 171.48288 117.785248 C 179.18071 113.07608 188.072922 110.644928 197.114807 110.777374 C 206.068314 110.777374 214.198517 113.043243 220.960373 117.592499 C 227.756699 122.053009 233.341309 128.106049 237.220779 135.21701 C 241.10025 128.106049 246.68486 122.053009 253.481186 117.592499 C 260.243042 113.043243 268.376831 110.777374 277.326752 110.777374 C 286.368988 110.644318 295.261566 113.075531 302.959564 117.785248 C 310.683044 122.523499 316.987579 129.227448 321.218201 137.200745 C 325.728424 145.466949 327.987 154.548004 327.987 165.242798 C 327.987 178.1427 324.560303 191.31073 317.707306 203.946045 Z"/>
        <path id="Circle" fill="#000000" fill-opacity="0.978652" fill-rule="evenodd" stroke="none" d="M 438.158447 322.735046 C 438.158447 310.289307 428.069153 300.200012 415.623383 300.200012 C 403.177612 300.200012 393.088318 310.289307 393.088318 322.735046 C 393.088318 335.180847 403.177612 345.270142 415.623383 345.270142 C 428.069153 345.270142 438.158447 335.180847 438.158447 322.735046 Z"/>
        <path id="Path" fill="none" stroke="#000000" stroke-width="8.763637" stroke-linecap="round" d="M 468.2052 447.929871 C 468.2052 447.929871 430.721558 443.554688 415.623383 432.906494 C 405.663116 425.881897 393.088318 399.103882 393.088318 399.103882"/>
    </g>
</svg>
